<svg width="212" height="39" viewBox="0 0 212 39" fill="none" xmlns="http://www.w3.org/2000/svg">
    <path d="M54.884 23.596V9.4H57.852V29H55.836L43.516 14.832V29H40.52V9.4H42.564L54.884 23.596ZM68.6552 29.308C67.2552 29.308 66.0232 29.056 64.9592 28.552C63.9139 28.0293 63.1019 27.3013 62.5232 26.368C61.9445 25.4347 61.6459 24.3613 61.6272 23.148H64.7632C64.8005 24.156 65.1459 24.968 65.7992 25.584C66.4712 26.2 67.4139 26.508 68.6272 26.508C69.7285 26.508 70.5872 26.2653 71.2032 25.78C71.8379 25.2947 72.1552 24.632 72.1552 23.792C72.1552 23.1387 71.9685 22.6067 71.5952 22.196C71.2405 21.7853 70.7925 21.4587 70.2512 21.216C69.7099 20.9547 68.9539 20.6653 67.9832 20.348C66.7139 19.9187 65.6965 19.5173 64.9312 19.144C64.1659 18.752 63.5032 18.1733 62.9432 17.408C62.4019 16.6427 62.1312 15.6347 62.1312 14.384C62.1312 13.376 62.4019 12.4707 62.9432 11.668C63.5032 10.8653 64.2685 10.24 65.2392 9.792C66.2285 9.32533 67.3392 9.092 68.5712 9.092C69.7285 9.092 70.7832 9.33467 71.7352 9.82C72.7059 10.2867 73.4805 10.9587 74.0592 11.836C74.6565 12.6947 74.9645 13.6933 74.9832 14.832H71.8752C71.8379 13.9733 71.5112 13.2733 70.8952 12.732C70.2979 12.172 69.4952 11.892 68.4872 11.892C67.5539 11.892 66.7885 12.116 66.1912 12.564C65.5939 13.012 65.2952 13.6373 65.2952 14.44C65.2952 15.056 65.4725 15.5693 65.8272 15.98C66.1819 16.3907 66.6299 16.7173 67.1712 16.96C67.7312 17.2027 68.4779 17.4733 69.4112 17.772C70.6805 18.2013 71.6979 18.612 72.4632 19.004C73.2472 19.396 73.9192 19.984 74.4792 20.768C75.0392 21.552 75.3192 22.5787 75.3192 23.848C75.3192 24.8747 75.0392 25.808 74.4792 26.648C73.9192 27.4693 73.1352 28.1227 72.1272 28.608C71.1192 29.0747 69.9619 29.308 68.6552 29.308ZM94.5324 29.308C93.0018 29.308 91.6578 28.9907 90.5004 28.356C89.3431 27.7027 88.4471 26.788 87.8124 25.612C87.1964 24.436 86.8884 23.092 86.8884 21.58V9.4H89.9684V21.468C89.9684 22.9613 90.3698 24.1653 91.1724 25.08C91.9751 25.976 93.0951 26.424 94.5324 26.424C95.9698 26.424 97.0898 25.976 97.8924 25.08C98.7138 24.1653 99.1244 22.9613 99.1244 21.468V9.4H102.204V21.58C102.204 23.092 101.887 24.436 101.252 25.612C100.636 26.788 99.7404 27.7027 98.5644 28.356C97.4071 28.9907 96.0631 29.308 94.5324 29.308ZM113.573 14.692C114.675 14.692 115.655 14.9627 116.513 15.504C117.391 16.0267 118.072 16.7547 118.557 17.688C119.043 18.6027 119.285 19.6293 119.285 20.768V29H116.373V21.132C116.373 20.012 116.065 19.116 115.449 18.444C114.852 17.7533 114.031 17.408 112.985 17.408C111.959 17.408 111.1 17.7533 110.409 18.444C109.719 19.1347 109.373 20.0307 109.373 21.132V29H106.461V15H109.289V16.652C109.849 16.0173 110.493 15.532 111.221 15.196C111.949 14.86 112.733 14.692 113.573 14.692ZM126.193 29H123.281V8.84H126.193V29ZM133.244 29H130.332V15H133.244V29ZM133.356 12.508H130.164V9.54H133.356V12.508ZM153.07 14.692C154.097 14.692 155.012 14.944 155.814 15.448C156.617 15.952 157.233 16.6613 157.662 17.576C158.11 18.472 158.334 19.4893 158.334 20.628V29H155.422V20.936C155.422 19.8907 155.152 19.0413 154.61 18.388C154.069 17.7347 153.35 17.408 152.454 17.408C151.577 17.408 150.821 17.744 150.186 18.416C149.552 19.088 149.234 19.928 149.234 20.936V29H146.322V20.936C146.322 19.8907 146.052 19.0413 145.51 18.388C144.988 17.7347 144.269 17.408 143.354 17.408C142.477 17.408 141.721 17.744 141.086 18.416C140.47 19.0693 140.162 19.9093 140.162 20.936V29H137.25V15H140.022V16.708C140.508 16.036 141.096 15.532 141.786 15.196C142.477 14.86 143.214 14.692 143.998 14.692C144.932 14.692 145.79 14.944 146.574 15.448C147.377 15.9333 147.993 16.5773 148.422 17.38C148.945 16.5213 149.598 15.8587 150.382 15.392C151.185 14.9253 152.081 14.692 153.07 14.692ZM165.1 29H162.188V15H165.1V29ZM165.212 12.508H162.02V9.54H165.212V12.508ZM176.442 17.688H172.998V24.072C172.998 24.7627 173.194 25.304 173.586 25.696C173.978 26.088 174.519 26.284 175.21 26.284H176.442V29H174.678C173.278 29 172.158 28.5893 171.318 27.768C170.497 26.9467 170.086 25.8547 170.086 24.492V17.688H167.79V15H170.086V11.304H172.998V15H176.442V17.688ZM185.521 14.692C186.79 14.692 187.966 15 189.049 15.616C190.15 16.2133 191.018 17.044 191.653 18.108C192.306 19.172 192.633 20.376 192.633 21.72C192.633 22.2053 192.596 22.644 192.521 23.036H181.349C181.517 24.212 181.965 25.136 182.693 25.808C183.44 26.48 184.382 26.816 185.521 26.816C187.22 26.816 188.452 26.144 189.217 24.8H192.213C191.653 26.1813 190.794 27.2827 189.637 28.104C188.498 28.9067 187.126 29.308 185.521 29.308C184.214 29.308 183.01 29 181.909 28.384C180.808 27.7493 179.93 26.8813 179.277 25.78C178.642 24.66 178.325 23.4 178.325 22C178.325 20.6 178.642 19.3493 179.277 18.248C179.93 17.128 180.808 16.26 181.909 15.644C183.01 15.0093 184.214 14.692 185.521 14.692ZM185.521 17.184C184.42 17.184 183.505 17.492 182.777 18.108C182.068 18.724 181.61 19.5733 181.405 20.656H189.609C189.46 19.6293 189.021 18.7987 188.293 18.164C187.565 17.5107 186.641 17.184 185.521 17.184ZM206.438 8.84H209.35V29H206.522V27.208C205.309 28.608 203.703 29.308 201.706 29.308C200.474 29.308 199.307 28.9907 198.206 28.356C197.123 27.7213 196.255 26.8533 195.602 25.752C194.949 24.632 194.622 23.3813 194.622 22C194.622 20.6187 194.949 19.3773 195.602 18.276C196.255 17.156 197.123 16.2787 198.206 15.644C199.307 15.0093 200.474 14.692 201.706 14.692C203.666 14.692 205.243 15.364 206.438 16.708V8.84ZM202.07 26.592C202.91 26.592 203.675 26.396 204.366 26.004C205.057 25.5933 205.598 25.0427 205.99 24.352C206.382 23.6427 206.578 22.8587 206.578 22C206.578 21.1413 206.382 20.3667 205.99 19.676C205.598 18.9667 205.057 18.416 204.366 18.024C203.675 17.6133 202.91 17.408 202.07 17.408C201.23 17.408 200.465 17.6133 199.774 18.024C199.083 18.416 198.542 18.9667 198.15 19.676C197.758 20.3667 197.562 21.1413 197.562 22C197.562 22.8587 197.758 23.6427 198.15 24.352C198.542 25.0427 199.083 25.5933 199.774 26.004C200.465 26.396 201.23 26.592 202.07 26.592Z" fill="black"/>
    <rect x="0.5" y="5.5" width="9.71429" height="9.71429" fill="#D9D9D9" stroke="black"/>
    <rect x="19.7857" y="5.5" width="9.71429" height="9.71429" fill="#FFC61E" stroke="black"/>
    <rect x="10.1429" y="5.5" width="9.71429" height="9.71429" fill="#D9D9D9" stroke="black"/>
    <rect x="0.5" y="15.1429" width="9.71429" height="9.71429" fill="#D9D9D9" stroke="black"/>
    <rect x="19.7857" y="15.1429" width="9.71429" height="9.71429" fill="#003082" stroke="black"/>
    <rect x="10.1429" y="15.1429" width="9.71429" height="9.71429" fill="#FFC61E" stroke="black"/>
    <rect x="0.5" y="24.7857" width="9.71429" height="9.71429" fill="#003082" stroke="black"/>
    <rect x="19.7857" y="24.7857" width="9.71429" height="9.71429" fill="#003082" stroke="black"/>
    <rect x="10.1429" y="24.7857" width="9.71429" height="9.71429" fill="#003082" stroke="black"/>
</svg>
